<svg xmlns="http://www.w3.org/2000/svg" xmlns:xlink="http://www.w3.org/1999/xlink" width="773" zoomAndPan="magnify" viewBox="0 0 579.75 254.999984" height="340" preserveAspectRatio="xMidYMid meet" version="1.0"><defs><g/><clipPath id="36905fec9e"><path d="M 468.71875 67.519531 L 533.941406 67.519531 L 533.941406 132.742188 L 468.71875 132.742188 Z M 468.71875 67.519531 " clip-rule="nonzero"/></clipPath><clipPath id="89c5c9d9c9"><path d="M 442.539062 132.921875 L 480.023438 132.921875 L 480.023438 170.40625 L 442.539062 170.40625 Z M 442.539062 132.921875 " clip-rule="nonzero"/></clipPath><clipPath id="e7beec6fa2"><path d="M 482.574219 154.859375 L 504.3125 154.859375 L 504.3125 176.597656 L 482.574219 176.597656 Z M 482.574219 154.859375 " clip-rule="nonzero"/></clipPath><clipPath id="6cc52dab5b"><path d="M 442.539062 69.777344 L 464.277344 69.777344 L 464.277344 91.519531 L 442.539062 91.519531 Z M 442.539062 69.777344 " clip-rule="nonzero"/></clipPath><clipPath id="d4b5442e5b"><path d="M 420.742188 177.75 L 442.484375 177.75 L 442.484375 199.492188 L 420.742188 199.492188 Z M 420.742188 177.75 " clip-rule="nonzero"/></clipPath></defs><g clip-path="url(#36905fec9e)"><path fill="#a2a69d" d="M 501.417969 67.519531 C 498.230469 94.449219 495.648438 97.03125 468.71875 100.21875 C 468.777344 100.226562 468.832031 100.230469 468.886719 100.238281 C 495.65625 103.414062 498.238281 106.042969 501.417969 132.917969 C 504.605469 105.988281 507.1875 103.40625 534.117188 100.21875 C 507.1875 97.03125 504.605469 94.449219 501.417969 67.519531 Z M 501.417969 67.519531 " fill-opacity="1" fill-rule="nonzero"/></g><g fill="#ff00ff" fill-opacity="1"><g transform="translate(130.672931, 159.803838)"><g><path d="M 22.140625 -23.53125 L 22.140625 -21.125 L 52.421875 -21.125 L 52.421875 -23.53125 C 52.421875 -24.925781 52.304688 -26.21875 52.078125 -27.40625 C 51.847656 -28.601562 51.550781 -29.722656 51.1875 -30.765625 L 45.828125 -43.421875 C 45.253906 -44.765625 44.65625 -45.890625 44.03125 -46.796875 C 43.414062 -47.703125 42.382812 -48.15625 40.9375 -48.15625 L 33.328125 -48.15625 C 31.765625 -48.15625 30.671875 -47.703125 30.046875 -46.796875 C 29.429688 -45.890625 28.863281 -44.789062 28.34375 -43.5 L 23.375 -30.765625 C 23.007812 -29.722656 22.710938 -28.601562 22.484375 -27.40625 C 22.253906 -26.21875 22.140625 -24.925781 22.140625 -23.53125 Z M 34.5625 -39.609375 C 34.769531 -40.078125 34.988281 -40.414062 35.21875 -40.625 C 35.457031 -40.832031 35.734375 -40.9375 36.046875 -40.9375 L 37.984375 -40.9375 C 38.296875 -40.9375 38.566406 -40.832031 38.796875 -40.625 C 39.023438 -40.414062 39.242188 -40.078125 39.453125 -39.609375 L 43.109375 -27.8125 L 30.90625 -27.8125 Z M 52.421875 -6.984375 L 52.421875 -20.34375 L 22.140625 -20.34375 L 22.140625 -6.984375 L 21.359375 -6.984375 L 21.359375 -23.53125 C 21.359375 -24.976562 21.472656 -26.3125 21.703125 -27.53125 C 21.941406 -28.75 22.269531 -29.925781 22.6875 -31.0625 L 27.65625 -43.8125 C 28.21875 -45.257812 28.863281 -46.472656 29.59375 -47.453125 C 30.320312 -48.441406 31.566406 -48.9375 33.328125 -48.9375 L 40.9375 -48.9375 C 42.644531 -48.9375 43.847656 -48.441406 44.546875 -47.453125 C 45.242188 -46.472656 45.90625 -45.234375 46.53125 -43.734375 L 51.890625 -31.0625 C 52.296875 -29.925781 52.613281 -28.75 52.84375 -27.53125 C 53.082031 -26.3125 53.203125 -24.976562 53.203125 -23.53125 L 53.203125 -6.984375 Z M 30.140625 -2.796875 L 30.140625 -13.671875 L 43.890625 -13.671875 L 43.890625 -2.796875 C 43.890625 -1.816406 44.132812 -1.101562 44.625 -0.65625 C 45.113281 -0.21875 45.875 0 46.90625 0 L 58.640625 0 C 59.628906 0 60.34375 -0.21875 60.78125 -0.65625 C 61.21875 -1.101562 61.4375 -1.816406 61.4375 -2.796875 L 61.4375 -23.296875 C 61.4375 -24.847656 61.191406 -26.632812 60.703125 -28.65625 C 60.210938 -30.675781 59.445312 -33.035156 58.40625 -35.734375 L 51.65625 -53.359375 C 51.34375 -54.242188 50.863281 -54.890625 50.21875 -55.296875 C 49.570312 -55.710938 48.753906 -55.921875 47.765625 -55.921875 L 26.875 -55.921875 C 25.84375 -55.921875 25 -55.710938 24.34375 -55.296875 C 23.695312 -54.890625 23.21875 -54.242188 22.90625 -53.359375 L 16.15625 -35.734375 C 15.125 -33.035156 14.359375 -30.675781 13.859375 -28.65625 C 13.367188 -26.632812 13.125 -24.847656 13.125 -23.296875 L 13.125 -2.796875 C 13.125 -1.816406 13.34375 -1.101562 13.78125 -0.65625 C 14.226562 -0.21875 14.941406 0 15.921875 0 L 27.34375 0 C 28.320312 0 29.03125 -0.21875 29.46875 -0.65625 C 29.914062 -1.101562 30.140625 -1.816406 30.140625 -2.796875 Z M 19.734375 8.46875 C 19.523438 8.675781 19.195312 8.859375 18.75 9.015625 C 18.3125 9.171875 17.835938 9.25 17.328125 9.25 L 5.90625 9.25 C 4.65625 9.25 3.742188 8.960938 3.171875 8.390625 C 2.609375 7.816406 2.328125 6.910156 2.328125 5.671875 L 2.328125 -14.828125 C 2.328125 -16.441406 2.570312 -18.269531 3.0625 -20.3125 C 3.5625 -22.351562 4.351562 -24.773438 5.4375 -27.578125 L 12.109375 -45.125 C 12.265625 -45.59375 12.457031 -45.992188 12.6875 -46.328125 C 12.925781 -46.671875 13.175781 -46.96875 13.4375 -47.21875 L 13.515625 -47.296875 L 23.453125 -55.609375 C 23.867188 -55.972656 24.359375 -56.242188 24.921875 -56.421875 C 25.492188 -56.609375 26.144531 -56.703125 26.875 -56.703125 L 47.765625 -56.703125 C 48.953125 -56.703125 49.921875 -56.453125 50.671875 -55.953125 C 51.429688 -55.460938 51.988281 -54.703125 52.34375 -53.671875 L 59.109375 -36.046875 C 60.191406 -33.242188 60.976562 -30.816406 61.46875 -28.765625 C 61.96875 -26.722656 62.21875 -24.898438 62.21875 -23.296875 L 62.21875 -2.796875 C 62.21875 -2.117188 62.125 -1.546875 61.9375 -1.078125 C 61.757812 -0.617188 61.488281 -0.234375 61.125 0.078125 L 51.03125 8.46875 C 50.820312 8.675781 50.5 8.859375 50.0625 9.015625 C 49.625 9.171875 49.144531 9.25 48.625 9.25 L 36.890625 9.25 C 35.597656 9.25 34.640625 8.945312 34.015625 8.34375 C 33.398438 7.75 33.09375 6.859375 33.09375 5.671875 L 33.09375 -4.421875 L 30.90625 -4.421875 L 30.90625 -2.796875 C 30.90625 -2.117188 30.816406 -1.546875 30.640625 -1.078125 C 30.460938 -0.617188 30.191406 -0.234375 29.828125 0.078125 Z M 19.734375 8.46875 "/></g></g></g><g fill="#ff00ff" fill-opacity="1"><g transform="translate(195.135961, 159.803838)"><g><path d="M 7.0625 9.25 C 5.820312 9.25 4.914062 8.960938 4.34375 8.390625 C 3.78125 7.816406 3.5 6.910156 3.5 5.671875 L 3.5 -44.65625 C 3.5 -45.332031 3.585938 -45.898438 3.765625 -46.359375 C 3.941406 -46.828125 4.210938 -47.21875 4.578125 -47.53125 L 14.609375 -56 C 14.859375 -56.207031 15.203125 -56.375 15.640625 -56.5 C 16.085938 -56.632812 16.570312 -56.703125 17.09375 -56.703125 L 41.859375 -56.703125 C 47.242188 -56.703125 51.207031 -55.648438 53.75 -53.546875 C 56.289062 -51.453125 57.5625 -48.285156 57.5625 -44.046875 L 57.5625 -40.3125 C 57.5625 -38.5 57.3125 -36.941406 56.8125 -35.640625 C 56.320312 -34.347656 55.585938 -33.316406 54.609375 -32.546875 L 54.375 -32.390625 C 57.164062 -31.765625 59.257812 -30.429688 60.65625 -28.390625 C 62.0625 -26.347656 62.765625 -23.515625 62.765625 -19.890625 L 62.765625 -12.734375 C 62.765625 -10.410156 62.425781 -8.40625 61.75 -6.71875 C 61.070312 -5.03125 60.0625 -3.617188 58.71875 -2.484375 L 48.703125 5.984375 C 47.410156 7.066406 45.78125 7.878906 43.8125 8.421875 C 41.84375 8.972656 39.535156 9.25 36.890625 9.25 Z M 46.90625 0 C 52.039062 0 55.835938 -1.035156 58.296875 -3.109375 C 60.753906 -5.179688 61.984375 -8.390625 61.984375 -12.734375 L 61.984375 -19.890625 C 61.984375 -23.660156 61.179688 -26.53125 59.578125 -28.5 C 57.972656 -30.46875 55.515625 -31.609375 52.203125 -31.921875 C 53.753906 -32.597656 54.90625 -33.617188 55.65625 -34.984375 C 56.40625 -36.359375 56.78125 -38.132812 56.78125 -40.3125 L 56.78125 -44.046875 C 56.78125 -48.078125 55.5625 -51.0625 53.125 -53 C 50.695312 -54.945312 46.941406 -55.921875 41.859375 -55.921875 L 17.09375 -55.921875 C 16.101562 -55.921875 15.390625 -55.703125 14.953125 -55.265625 C 14.515625 -54.828125 14.296875 -54.113281 14.296875 -53.125 L 14.296875 -2.796875 C 14.296875 -1.816406 14.515625 -1.101562 14.953125 -0.65625 C 15.390625 -0.21875 16.101562 0 17.09375 0 Z M 43.8125 -6.984375 L 22.90625 -6.984375 L 22.90625 -48.9375 L 38.6875 -48.9375 C 40.800781 -48.9375 42.53125 -48.710938 43.875 -48.265625 C 45.226562 -47.828125 46.265625 -47.234375 46.984375 -46.484375 C 47.710938 -45.734375 48.207031 -44.863281 48.46875 -43.875 C 48.726562 -42.894531 48.859375 -41.835938 48.859375 -40.703125 L 48.859375 -35.734375 C 48.859375 -34.179688 48.582031 -32.753906 48.03125 -31.453125 C 47.488281 -30.160156 46.109375 -29.226562 43.890625 -28.65625 C 46.003906 -28.65625 47.734375 -28.4375 49.078125 -28 C 50.429688 -27.5625 51.46875 -26.941406 52.1875 -26.140625 C 52.914062 -25.335938 53.394531 -24.390625 53.625 -23.296875 C 53.863281 -22.210938 53.984375 -21.023438 53.984375 -19.734375 L 53.984375 -14.75 C 53.984375 -13.613281 53.851562 -12.566406 53.59375 -11.609375 C 53.332031 -10.648438 52.851562 -9.832031 52.15625 -9.15625 C 51.457031 -8.488281 50.429688 -7.957031 49.078125 -7.5625 C 47.734375 -7.175781 45.976562 -6.984375 43.8125 -6.984375 Z M 38.6875 -48.15625 L 23.6875 -48.15625 L 23.6875 -28.65625 L 38.6875 -28.65625 C 40.800781 -28.65625 42.476562 -28.847656 43.71875 -29.234375 C 44.96875 -29.628906 45.914062 -30.148438 46.5625 -30.796875 C 47.207031 -31.441406 47.617188 -32.191406 47.796875 -33.046875 C 47.984375 -33.898438 48.078125 -34.796875 48.078125 -35.734375 L 48.078125 -40.703125 C 48.078125 -42.773438 47.476562 -44.535156 46.28125 -45.984375 C 45.09375 -47.429688 42.5625 -48.15625 38.6875 -48.15625 Z M 31.765625 -42.71875 L 38.375 -42.71875 C 39.351562 -42.71875 40.085938 -42.457031 40.578125 -41.9375 C 41.078125 -41.425781 41.328125 -40.648438 41.328125 -39.609375 L 41.328125 -37.4375 C 41.328125 -36.40625 41.078125 -35.628906 40.578125 -35.109375 C 40.085938 -34.585938 39.351562 -34.328125 38.375 -34.328125 L 31.765625 -34.328125 Z M 43.890625 -27.890625 L 23.6875 -27.890625 L 23.6875 -7.765625 L 43.8125 -7.765625 C 47.6875 -7.765625 50.21875 -8.398438 51.40625 -9.671875 C 52.601562 -10.941406 53.203125 -12.632812 53.203125 -14.75 L 53.203125 -19.734375 C 53.203125 -22.054688 52.617188 -23.992188 51.453125 -25.546875 C 50.285156 -27.109375 47.765625 -27.890625 43.890625 -27.890625 Z M 31.765625 -22.375 L 41.859375 -22.375 C 42.847656 -22.375 43.585938 -22.125 44.078125 -21.625 C 44.566406 -21.132812 44.8125 -20.375 44.8125 -19.34375 L 44.8125 -16.3125 C 44.8125 -15.269531 44.566406 -14.488281 44.078125 -13.96875 C 43.585938 -13.457031 42.847656 -13.203125 41.859375 -13.203125 L 31.765625 -13.203125 Z M 31.765625 -22.375 "/></g></g></g><g fill="#ff00ff" fill-opacity="1"><g transform="translate(259.210663, 159.803838)"><g><path d="M 47.765625 5.515625 C 45.953125 7.066406 43.414062 8.269531 40.15625 9.125 C 36.894531 9.976562 32.703125 10.40625 27.578125 10.40625 C 22.503906 10.40625 18.347656 9.875 15.109375 8.8125 C 11.867188 7.75 9.328125 6.335938 7.484375 4.578125 C 5.648438 2.816406 4.382812 0.800781 3.6875 -1.46875 C 2.988281 -3.75 2.640625 -6.109375 2.640625 -8.546875 L 2.640625 -32.703125 C 2.640625 -35.078125 2.972656 -37.285156 3.640625 -39.328125 C 4.316406 -41.378906 5.535156 -43.128906 7.296875 -44.578125 L 17.40625 -52.96875 C 19.207031 -54.519531 21.726562 -55.722656 24.96875 -56.578125 C 28.207031 -57.429688 32.414062 -57.859375 37.59375 -57.859375 C 42.664062 -57.859375 46.816406 -57.441406 50.046875 -56.609375 C 53.285156 -55.785156 55.820312 -54.632812 57.65625 -53.15625 C 59.5 -51.6875 60.757812 -49.925781 61.4375 -47.875 C 62.113281 -45.832031 62.453125 -43.597656 62.453125 -41.171875 L 62.453125 -14.6875 C 62.453125 -12.300781 62.113281 -10.097656 61.4375 -8.078125 C 60.757812 -6.054688 59.539062 -4.320312 57.78125 -2.875 Z M 61.671875 -14.6875 L 61.671875 -41.171875 C 61.671875 -43.546875 61.320312 -45.703125 60.625 -47.640625 C 59.925781 -49.585938 58.679688 -51.257812 56.890625 -52.65625 C 55.109375 -54.0625 52.648438 -55.148438 49.515625 -55.921875 C 46.378906 -56.703125 42.40625 -57.09375 37.59375 -57.09375 C 32.78125 -57.09375 28.789062 -56.703125 25.625 -55.921875 C 22.46875 -55.148438 19.992188 -54.0625 18.203125 -52.65625 C 16.421875 -51.257812 15.179688 -49.585938 14.484375 -47.640625 C 13.785156 -45.703125 13.4375 -43.546875 13.4375 -41.171875 L 13.4375 -14.6875 C 13.4375 -12.300781 13.785156 -10.132812 14.484375 -8.1875 C 15.179688 -6.25 16.421875 -4.59375 18.203125 -3.21875 C 19.992188 -1.851562 22.46875 -0.78125 25.625 0 C 28.789062 0.78125 32.78125 1.171875 37.59375 1.171875 C 42.40625 1.171875 46.378906 0.78125 49.515625 0 C 52.648438 -0.78125 55.109375 -1.851562 56.890625 -3.21875 C 58.679688 -4.59375 59.925781 -6.25 60.625 -8.1875 C 61.320312 -10.132812 61.671875 -12.300781 61.671875 -14.6875 Z M 53.203125 -16.46875 C 53.203125 -13.363281 52.085938 -10.835938 49.859375 -8.890625 C 47.640625 -6.953125 43.5 -5.984375 37.4375 -5.984375 C 31.375 -5.984375 27.253906 -6.953125 25.078125 -8.890625 C 22.910156 -10.835938 21.828125 -13.363281 21.828125 -16.46875 L 21.828125 -39.375 C 21.828125 -42.488281 22.910156 -45.015625 25.078125 -46.953125 C 27.253906 -48.890625 31.375 -49.859375 37.4375 -49.859375 C 43.5 -49.859375 47.640625 -48.890625 49.859375 -46.953125 C 52.085938 -45.015625 53.203125 -42.488281 53.203125 -39.375 Z M 22.609375 -16.46875 C 22.609375 -13.5625 23.640625 -11.210938 25.703125 -9.421875 C 27.773438 -7.640625 31.6875 -6.75 37.4375 -6.75 C 43.1875 -6.75 47.117188 -7.640625 49.234375 -9.421875 C 51.359375 -11.210938 52.421875 -13.5625 52.421875 -16.46875 L 52.421875 -39.375 C 52.421875 -42.28125 51.359375 -44.625 49.234375 -46.40625 C 47.117188 -48.195312 43.1875 -49.09375 37.4375 -49.09375 C 31.6875 -49.09375 27.773438 -48.195312 25.703125 -46.40625 C 23.640625 -44.625 22.609375 -42.28125 22.609375 -39.375 Z M 31.0625 -17.46875 L 31.0625 -38.375 C 31.0625 -39.351562 31.453125 -40.191406 32.234375 -40.890625 C 33.015625 -41.585938 34.800781 -41.9375 37.59375 -41.9375 C 40.382812 -41.9375 42.171875 -41.585938 42.953125 -40.890625 C 43.734375 -40.191406 44.125 -39.351562 44.125 -38.375 L 44.125 -17.46875 C 44.125 -16.4375 43.734375 -15.570312 42.953125 -14.875 C 42.171875 -14.175781 40.382812 -13.828125 37.59375 -13.828125 C 34.800781 -13.828125 33.015625 -14.175781 32.234375 -14.875 C 31.453125 -15.570312 31.0625 -16.4375 31.0625 -17.46875 Z M 31.84375 -17.46875 C 31.84375 -16.957031 31.945312 -16.503906 32.15625 -16.109375 C 32.363281 -15.722656 32.753906 -15.398438 33.328125 -15.140625 L 33.328125 -29.90625 C 33.328125 -30.425781 33.222656 -30.878906 33.015625 -31.265625 C 32.804688 -31.648438 32.414062 -31.945312 31.84375 -32.15625 Z M 31.84375 -17.46875 "/></g></g></g><g fill="#ff00ff" fill-opacity="1"><g transform="translate(324.217359, 159.803838)"><g><path d="M 27.890625 10.40625 C 22.859375 10.40625 18.722656 9.875 15.484375 8.8125 C 12.253906 7.75 9.734375 6.335938 7.921875 4.578125 C 6.109375 2.816406 4.851562 0.800781 4.15625 -1.46875 C 3.457031 -3.75 3.109375 -6.109375 3.109375 -8.546875 L 3.109375 -44.65625 C 3.109375 -45.332031 3.195312 -45.898438 3.375 -46.359375 C 3.5625 -46.828125 3.832031 -47.21875 4.1875 -47.53125 L 14.21875 -56 C 14.476562 -56.207031 14.828125 -56.375 15.265625 -56.5 C 15.703125 -56.632812 16.179688 -56.703125 16.703125 -56.703125 L 28.890625 -56.703125 C 30.140625 -56.703125 31.046875 -56.414062 31.609375 -55.84375 C 32.179688 -55.269531 32.46875 -54.363281 32.46875 -53.125 L 32.46875 -17.703125 C 32.46875 -17.242188 32.546875 -16.816406 32.703125 -16.421875 C 32.859375 -16.035156 33.191406 -15.738281 33.703125 -15.53125 L 33.703125 -44.65625 C 33.703125 -45.332031 33.78125 -45.898438 33.9375 -46.359375 C 34.09375 -46.828125 34.328125 -47.191406 34.640625 -47.453125 L 34.71875 -47.53125 L 44.8125 -56 C 45.070312 -56.207031 45.410156 -56.375 45.828125 -56.5 C 46.242188 -56.632812 46.734375 -56.703125 47.296875 -56.703125 L 59.109375 -56.703125 C 60.347656 -56.703125 61.253906 -56.414062 61.828125 -55.84375 C 62.398438 -55.269531 62.6875 -54.363281 62.6875 -53.125 L 62.6875 -14.6875 C 62.6875 -12.300781 62.347656 -10.097656 61.671875 -8.078125 C 60.992188 -6.054688 59.773438 -4.320312 58.015625 -2.875 L 47.921875 5.515625 C 46.109375 7.066406 43.597656 8.269531 40.390625 9.125 C 37.179688 9.976562 33.015625 10.40625 27.890625 10.40625 Z M 61.90625 -14.6875 L 61.90625 -53.125 C 61.90625 -54.113281 61.679688 -54.828125 61.234375 -55.265625 C 60.796875 -55.703125 60.085938 -55.921875 59.109375 -55.921875 L 47.296875 -55.921875 C 46.316406 -55.921875 45.601562 -55.703125 45.15625 -55.265625 C 44.71875 -54.828125 44.5 -54.113281 44.5 -53.125 L 44.5 -17.703125 C 44.5 -16.671875 44.109375 -15.804688 43.328125 -15.109375 C 42.554688 -14.410156 40.800781 -14.0625 38.0625 -14.0625 C 35.363281 -14.0625 33.625 -14.410156 32.84375 -15.109375 C 32.070312 -15.804688 31.6875 -16.671875 31.6875 -17.703125 L 31.6875 -53.125 C 31.6875 -54.113281 31.46875 -54.828125 31.03125 -55.265625 C 30.59375 -55.703125 29.878906 -55.921875 28.890625 -55.921875 L 16.703125 -55.921875 C 15.710938 -55.921875 15 -55.703125 14.5625 -55.265625 C 14.125 -54.828125 13.90625 -54.113281 13.90625 -53.125 L 13.90625 -14.6875 C 13.90625 -12.300781 14.253906 -10.132812 14.953125 -8.1875 C 15.648438 -6.25 16.890625 -4.59375 18.671875 -3.21875 C 20.460938 -1.851562 22.910156 -0.78125 26.015625 0 C 29.128906 0.78125 33.09375 1.171875 37.90625 1.171875 C 42.71875 1.171875 46.675781 0.78125 49.78125 0 C 52.894531 -0.78125 55.34375 -1.851562 57.125 -3.21875 C 58.914062 -4.59375 60.160156 -6.25 60.859375 -8.1875 C 61.554688 -10.132812 61.90625 -12.300781 61.90625 -14.6875 Z M 22.453125 -48.9375 L 23.21875 -48.9375 L 23.21875 -16.546875 C 23.21875 -13.640625 24.238281 -11.289062 26.28125 -9.5 C 28.332031 -7.71875 32.234375 -6.828125 37.984375 -6.828125 C 43.734375 -6.828125 47.640625 -7.71875 49.703125 -9.5 C 51.773438 -11.289062 52.8125 -13.640625 52.8125 -16.546875 L 52.8125 -48.9375 L 53.59375 -48.9375 L 53.59375 -16.546875 C 53.59375 -13.441406 52.503906 -10.914062 50.328125 -8.96875 C 48.148438 -7.03125 44.035156 -6.0625 37.984375 -6.0625 C 31.921875 -6.0625 27.816406 -7.03125 25.671875 -8.96875 C 23.523438 -10.914062 22.453125 -13.441406 22.453125 -16.546875 Z M 22.453125 -48.9375 "/></g></g></g><g fill="#ff00ff" fill-opacity="1"><g transform="translate(389.923058, 159.803838)"><g><path d="M 30.6875 9.25 L 18.09375 9.25 C 16.851562 9.25 15.945312 8.960938 15.375 8.390625 C 14.8125 7.816406 14.53125 6.910156 14.53125 5.671875 L 14.53125 -31.6875 L 3.890625 -31.6875 C 2.640625 -31.6875 1.726562 -31.972656 1.15625 -32.546875 C 0.59375 -33.117188 0.3125 -34.023438 0.3125 -35.265625 L 0.3125 -44.65625 C 0.3125 -45.332031 0.398438 -45.898438 0.578125 -46.359375 C 0.765625 -46.828125 1.035156 -47.21875 1.390625 -47.53125 L 11.421875 -56 C 11.679688 -56.207031 12.03125 -56.375 12.46875 -56.5 C 12.90625 -56.632812 13.382812 -56.703125 13.90625 -56.703125 L 54.90625 -56.703125 C 56.15625 -56.703125 57.0625 -56.414062 57.625 -55.84375 C 58.195312 -55.269531 58.484375 -54.363281 58.484375 -53.125 L 58.484375 -43.734375 C 58.484375 -43.054688 58.390625 -42.484375 58.203125 -42.015625 C 58.023438 -41.554688 57.757812 -41.171875 57.40625 -40.859375 L 47.296875 -32.46875 C 47.085938 -32.257812 46.765625 -32.078125 46.328125 -31.921875 C 45.890625 -31.765625 45.410156 -31.6875 44.890625 -31.6875 L 44.265625 -31.6875 L 44.265625 -2.796875 C 44.265625 -2.117188 44.175781 -1.546875 44 -1.078125 C 43.820312 -0.617188 43.550781 -0.234375 43.1875 0.078125 L 33.09375 8.46875 C 32.882812 8.675781 32.554688 8.859375 32.109375 9.015625 C 31.671875 9.171875 31.195312 9.25 30.6875 9.25 Z M 40.703125 0 C 41.679688 0 42.390625 -0.21875 42.828125 -0.65625 C 43.273438 -1.101562 43.5 -1.816406 43.5 -2.796875 L 43.5 -40.9375 L 54.90625 -40.9375 C 55.894531 -40.9375 56.609375 -41.15625 57.046875 -41.59375 C 57.484375 -42.03125 57.703125 -42.742188 57.703125 -43.734375 L 57.703125 -53.125 C 57.703125 -54.113281 57.484375 -54.828125 57.046875 -55.265625 C 56.609375 -55.703125 55.894531 -55.921875 54.90625 -55.921875 L 13.90625 -55.921875 C 12.914062 -55.921875 12.203125 -55.703125 11.765625 -55.265625 C 11.328125 -54.828125 11.109375 -54.113281 11.109375 -53.125 L 11.109375 -43.734375 C 11.109375 -42.742188 11.328125 -42.03125 11.765625 -41.59375 C 12.203125 -41.15625 12.914062 -40.9375 13.90625 -40.9375 L 25.328125 -40.9375 L 25.328125 -2.796875 C 25.328125 -1.816406 25.546875 -1.101562 25.984375 -0.65625 C 26.421875 -0.21875 27.128906 0 28.109375 0 Z M 34.015625 -6.984375 L 34.015625 -48.15625 L 18.09375 -48.15625 L 18.09375 -48.9375 L 50.71875 -48.9375 L 50.71875 -48.15625 L 34.796875 -48.15625 L 34.796875 -6.984375 Z M 34.015625 -6.984375 "/></g></g></g><g fill="#00ffff" fill-opacity="1"><g transform="translate(130.672931, 150.191195)"><g><path d="M 22.140625 -23.53125 L 22.140625 -21.125 L 52.421875 -21.125 L 52.421875 -23.53125 C 52.421875 -24.925781 52.304688 -26.21875 52.078125 -27.40625 C 51.847656 -28.601562 51.550781 -29.722656 51.1875 -30.765625 L 45.828125 -43.421875 C 45.253906 -44.765625 44.65625 -45.890625 44.03125 -46.796875 C 43.414062 -47.703125 42.382812 -48.15625 40.9375 -48.15625 L 33.328125 -48.15625 C 31.765625 -48.15625 30.671875 -47.703125 30.046875 -46.796875 C 29.429688 -45.890625 28.863281 -44.789062 28.34375 -43.5 L 23.375 -30.765625 C 23.007812 -29.722656 22.710938 -28.601562 22.484375 -27.40625 C 22.253906 -26.21875 22.140625 -24.925781 22.140625 -23.53125 Z M 34.5625 -39.609375 C 34.769531 -40.078125 34.988281 -40.414062 35.21875 -40.625 C 35.457031 -40.832031 35.734375 -40.9375 36.046875 -40.9375 L 37.984375 -40.9375 C 38.296875 -40.9375 38.566406 -40.832031 38.796875 -40.625 C 39.023438 -40.414062 39.242188 -40.078125 39.453125 -39.609375 L 43.109375 -27.8125 L 30.90625 -27.8125 Z M 52.421875 -6.984375 L 52.421875 -20.34375 L 22.140625 -20.34375 L 22.140625 -6.984375 L 21.359375 -6.984375 L 21.359375 -23.53125 C 21.359375 -24.976562 21.472656 -26.3125 21.703125 -27.53125 C 21.941406 -28.75 22.269531 -29.925781 22.6875 -31.0625 L 27.65625 -43.8125 C 28.21875 -45.257812 28.863281 -46.472656 29.59375 -47.453125 C 30.320312 -48.441406 31.566406 -48.9375 33.328125 -48.9375 L 40.9375 -48.9375 C 42.644531 -48.9375 43.847656 -48.441406 44.546875 -47.453125 C 45.242188 -46.472656 45.90625 -45.234375 46.53125 -43.734375 L 51.890625 -31.0625 C 52.296875 -29.925781 52.613281 -28.75 52.84375 -27.53125 C 53.082031 -26.3125 53.203125 -24.976562 53.203125 -23.53125 L 53.203125 -6.984375 Z M 30.140625 -2.796875 L 30.140625 -13.671875 L 43.890625 -13.671875 L 43.890625 -2.796875 C 43.890625 -1.816406 44.132812 -1.101562 44.625 -0.65625 C 45.113281 -0.21875 45.875 0 46.90625 0 L 58.640625 0 C 59.628906 0 60.34375 -0.21875 60.78125 -0.65625 C 61.21875 -1.101562 61.4375 -1.816406 61.4375 -2.796875 L 61.4375 -23.296875 C 61.4375 -24.847656 61.191406 -26.632812 60.703125 -28.65625 C 60.210938 -30.675781 59.445312 -33.035156 58.40625 -35.734375 L 51.65625 -53.359375 C 51.34375 -54.242188 50.863281 -54.890625 50.21875 -55.296875 C 49.570312 -55.710938 48.753906 -55.921875 47.765625 -55.921875 L 26.875 -55.921875 C 25.84375 -55.921875 25 -55.710938 24.34375 -55.296875 C 23.695312 -54.890625 23.21875 -54.242188 22.90625 -53.359375 L 16.15625 -35.734375 C 15.125 -33.035156 14.359375 -30.675781 13.859375 -28.65625 C 13.367188 -26.632812 13.125 -24.847656 13.125 -23.296875 L 13.125 -2.796875 C 13.125 -1.816406 13.34375 -1.101562 13.78125 -0.65625 C 14.226562 -0.21875 14.941406 0 15.921875 0 L 27.34375 0 C 28.320312 0 29.03125 -0.21875 29.46875 -0.65625 C 29.914062 -1.101562 30.140625 -1.816406 30.140625 -2.796875 Z M 19.734375 8.46875 C 19.523438 8.675781 19.195312 8.859375 18.75 9.015625 C 18.3125 9.171875 17.835938 9.25 17.328125 9.25 L 5.90625 9.25 C 4.65625 9.25 3.742188 8.960938 3.171875 8.390625 C 2.609375 7.816406 2.328125 6.910156 2.328125 5.671875 L 2.328125 -14.828125 C 2.328125 -16.441406 2.570312 -18.269531 3.0625 -20.3125 C 3.5625 -22.351562 4.351562 -24.773438 5.4375 -27.578125 L 12.109375 -45.125 C 12.265625 -45.59375 12.457031 -45.992188 12.6875 -46.328125 C 12.925781 -46.671875 13.175781 -46.96875 13.4375 -47.21875 L 13.515625 -47.296875 L 23.453125 -55.609375 C 23.867188 -55.972656 24.359375 -56.242188 24.921875 -56.421875 C 25.492188 -56.609375 26.144531 -56.703125 26.875 -56.703125 L 47.765625 -56.703125 C 48.953125 -56.703125 49.921875 -56.453125 50.671875 -55.953125 C 51.429688 -55.460938 51.988281 -54.703125 52.34375 -53.671875 L 59.109375 -36.046875 C 60.191406 -33.242188 60.976562 -30.816406 61.46875 -28.765625 C 61.96875 -26.722656 62.21875 -24.898438 62.21875 -23.296875 L 62.21875 -2.796875 C 62.21875 -2.117188 62.125 -1.546875 61.9375 -1.078125 C 61.757812 -0.617188 61.488281 -0.234375 61.125 0.078125 L 51.03125 8.46875 C 50.820312 8.675781 50.5 8.859375 50.0625 9.015625 C 49.625 9.171875 49.144531 9.25 48.625 9.25 L 36.890625 9.25 C 35.597656 9.25 34.640625 8.945312 34.015625 8.34375 C 33.398438 7.75 33.09375 6.859375 33.09375 5.671875 L 33.09375 -4.421875 L 30.90625 -4.421875 L 30.90625 -2.796875 C 30.90625 -2.117188 30.816406 -1.546875 30.640625 -1.078125 C 30.460938 -0.617188 30.191406 -0.234375 29.828125 0.078125 Z M 19.734375 8.46875 "/></g></g></g><g fill="#00ffff" fill-opacity="1"><g transform="translate(195.135961, 150.191195)"><g><path d="M 7.0625 9.25 C 5.820312 9.25 4.914062 8.960938 4.34375 8.390625 C 3.78125 7.816406 3.5 6.910156 3.5 5.671875 L 3.5 -44.65625 C 3.5 -45.332031 3.585938 -45.898438 3.765625 -46.359375 C 3.941406 -46.828125 4.210938 -47.21875 4.578125 -47.53125 L 14.609375 -56 C 14.859375 -56.207031 15.203125 -56.375 15.640625 -56.5 C 16.085938 -56.632812 16.570312 -56.703125 17.09375 -56.703125 L 41.859375 -56.703125 C 47.242188 -56.703125 51.207031 -55.648438 53.75 -53.546875 C 56.289062 -51.453125 57.5625 -48.285156 57.5625 -44.046875 L 57.5625 -40.3125 C 57.5625 -38.5 57.3125 -36.941406 56.8125 -35.640625 C 56.320312 -34.347656 55.585938 -33.316406 54.609375 -32.546875 L 54.375 -32.390625 C 57.164062 -31.765625 59.257812 -30.429688 60.65625 -28.390625 C 62.0625 -26.347656 62.765625 -23.515625 62.765625 -19.890625 L 62.765625 -12.734375 C 62.765625 -10.410156 62.425781 -8.40625 61.75 -6.71875 C 61.070312 -5.03125 60.0625 -3.617188 58.71875 -2.484375 L 48.703125 5.984375 C 47.410156 7.066406 45.78125 7.878906 43.8125 8.421875 C 41.84375 8.972656 39.535156 9.25 36.890625 9.25 Z M 46.90625 0 C 52.039062 0 55.835938 -1.035156 58.296875 -3.109375 C 60.753906 -5.179688 61.984375 -8.390625 61.984375 -12.734375 L 61.984375 -19.890625 C 61.984375 -23.660156 61.179688 -26.53125 59.578125 -28.5 C 57.972656 -30.46875 55.515625 -31.609375 52.203125 -31.921875 C 53.753906 -32.597656 54.90625 -33.617188 55.65625 -34.984375 C 56.40625 -36.359375 56.78125 -38.132812 56.78125 -40.3125 L 56.78125 -44.046875 C 56.78125 -48.078125 55.5625 -51.0625 53.125 -53 C 50.695312 -54.945312 46.941406 -55.921875 41.859375 -55.921875 L 17.09375 -55.921875 C 16.101562 -55.921875 15.390625 -55.703125 14.953125 -55.265625 C 14.515625 -54.828125 14.296875 -54.113281 14.296875 -53.125 L 14.296875 -2.796875 C 14.296875 -1.816406 14.515625 -1.101562 14.953125 -0.65625 C 15.390625 -0.21875 16.101562 0 17.09375 0 Z M 43.8125 -6.984375 L 22.90625 -6.984375 L 22.90625 -48.9375 L 38.6875 -48.9375 C 40.800781 -48.9375 42.53125 -48.710938 43.875 -48.265625 C 45.226562 -47.828125 46.265625 -47.234375 46.984375 -46.484375 C 47.710938 -45.734375 48.207031 -44.863281 48.46875 -43.875 C 48.726562 -42.894531 48.859375 -41.835938 48.859375 -40.703125 L 48.859375 -35.734375 C 48.859375 -34.179688 48.582031 -32.753906 48.03125 -31.453125 C 47.488281 -30.160156 46.109375 -29.226562 43.890625 -28.65625 C 46.003906 -28.65625 47.734375 -28.4375 49.078125 -28 C 50.429688 -27.5625 51.46875 -26.941406 52.1875 -26.140625 C 52.914062 -25.335938 53.394531 -24.390625 53.625 -23.296875 C 53.863281 -22.210938 53.984375 -21.023438 53.984375 -19.734375 L 53.984375 -14.75 C 53.984375 -13.613281 53.851562 -12.566406 53.59375 -11.609375 C 53.332031 -10.648438 52.851562 -9.832031 52.15625 -9.15625 C 51.457031 -8.488281 50.429688 -7.957031 49.078125 -7.5625 C 47.734375 -7.175781 45.976562 -6.984375 43.8125 -6.984375 Z M 38.6875 -48.15625 L 23.6875 -48.15625 L 23.6875 -28.65625 L 38.6875 -28.65625 C 40.800781 -28.65625 42.476562 -28.847656 43.71875 -29.234375 C 44.96875 -29.628906 45.914062 -30.148438 46.5625 -30.796875 C 47.207031 -31.441406 47.617188 -32.191406 47.796875 -33.046875 C 47.984375 -33.898438 48.078125 -34.796875 48.078125 -35.734375 L 48.078125 -40.703125 C 48.078125 -42.773438 47.476562 -44.535156 46.28125 -45.984375 C 45.09375 -47.429688 42.5625 -48.15625 38.6875 -48.15625 Z M 31.765625 -42.71875 L 38.375 -42.71875 C 39.351562 -42.71875 40.085938 -42.457031 40.578125 -41.9375 C 41.078125 -41.425781 41.328125 -40.648438 41.328125 -39.609375 L 41.328125 -37.4375 C 41.328125 -36.40625 41.078125 -35.628906 40.578125 -35.109375 C 40.085938 -34.585938 39.351562 -34.328125 38.375 -34.328125 L 31.765625 -34.328125 Z M 43.890625 -27.890625 L 23.6875 -27.890625 L 23.6875 -7.765625 L 43.8125 -7.765625 C 47.6875 -7.765625 50.21875 -8.398438 51.40625 -9.671875 C 52.601562 -10.941406 53.203125 -12.632812 53.203125 -14.75 L 53.203125 -19.734375 C 53.203125 -22.054688 52.617188 -23.992188 51.453125 -25.546875 C 50.285156 -27.109375 47.765625 -27.890625 43.890625 -27.890625 Z M 31.765625 -22.375 L 41.859375 -22.375 C 42.847656 -22.375 43.585938 -22.125 44.078125 -21.625 C 44.566406 -21.132812 44.8125 -20.375 44.8125 -19.34375 L 44.8125 -16.3125 C 44.8125 -15.269531 44.566406 -14.488281 44.078125 -13.96875 C 43.585938 -13.457031 42.847656 -13.203125 41.859375 -13.203125 L 31.765625 -13.203125 Z M 31.765625 -22.375 "/></g></g></g><g fill="#00ffff" fill-opacity="1"><g transform="translate(259.210663, 150.191195)"><g><path d="M 47.765625 5.515625 C 45.953125 7.066406 43.414062 8.269531 40.15625 9.125 C 36.894531 9.976562 32.703125 10.40625 27.578125 10.40625 C 22.503906 10.40625 18.347656 9.875 15.109375 8.8125 C 11.867188 7.75 9.328125 6.335938 7.484375 4.578125 C 5.648438 2.816406 4.382812 0.800781 3.6875 -1.46875 C 2.988281 -3.75 2.640625 -6.109375 2.640625 -8.546875 L 2.640625 -32.703125 C 2.640625 -35.078125 2.972656 -37.285156 3.640625 -39.328125 C 4.316406 -41.378906 5.535156 -43.128906 7.296875 -44.578125 L 17.40625 -52.96875 C 19.207031 -54.519531 21.726562 -55.722656 24.96875 -56.578125 C 28.207031 -57.429688 32.414062 -57.859375 37.59375 -57.859375 C 42.664062 -57.859375 46.816406 -57.441406 50.046875 -56.609375 C 53.285156 -55.785156 55.820312 -54.632812 57.65625 -53.15625 C 59.5 -51.6875 60.757812 -49.925781 61.4375 -47.875 C 62.113281 -45.832031 62.453125 -43.597656 62.453125 -41.171875 L 62.453125 -14.6875 C 62.453125 -12.300781 62.113281 -10.097656 61.4375 -8.078125 C 60.757812 -6.054688 59.539062 -4.320312 57.78125 -2.875 Z M 61.671875 -14.6875 L 61.671875 -41.171875 C 61.671875 -43.546875 61.320312 -45.703125 60.625 -47.640625 C 59.925781 -49.585938 58.679688 -51.257812 56.890625 -52.65625 C 55.109375 -54.0625 52.648438 -55.148438 49.515625 -55.921875 C 46.378906 -56.703125 42.40625 -57.09375 37.59375 -57.09375 C 32.78125 -57.09375 28.789062 -56.703125 25.625 -55.921875 C 22.46875 -55.148438 19.992188 -54.0625 18.203125 -52.65625 C 16.421875 -51.257812 15.179688 -49.585938 14.484375 -47.640625 C 13.785156 -45.703125 13.4375 -43.546875 13.4375 -41.171875 L 13.4375 -14.6875 C 13.4375 -12.300781 13.785156 -10.132812 14.484375 -8.1875 C 15.179688 -6.25 16.421875 -4.59375 18.203125 -3.21875 C 19.992188 -1.851562 22.46875 -0.78125 25.625 0 C 28.789062 0.78125 32.78125 1.171875 37.59375 1.171875 C 42.40625 1.171875 46.378906 0.78125 49.515625 0 C 52.648438 -0.78125 55.109375 -1.851562 56.890625 -3.21875 C 58.679688 -4.59375 59.925781 -6.25 60.625 -8.1875 C 61.320312 -10.132812 61.671875 -12.300781 61.671875 -14.6875 Z M 53.203125 -16.46875 C 53.203125 -13.363281 52.085938 -10.835938 49.859375 -8.890625 C 47.640625 -6.953125 43.5 -5.984375 37.4375 -5.984375 C 31.375 -5.984375 27.253906 -6.953125 25.078125 -8.890625 C 22.910156 -10.835938 21.828125 -13.363281 21.828125 -16.46875 L 21.828125 -39.375 C 21.828125 -42.488281 22.910156 -45.015625 25.078125 -46.953125 C 27.253906 -48.890625 31.375 -49.859375 37.4375 -49.859375 C 43.5 -49.859375 47.640625 -48.890625 49.859375 -46.953125 C 52.085938 -45.015625 53.203125 -42.488281 53.203125 -39.375 Z M 22.609375 -16.46875 C 22.609375 -13.5625 23.640625 -11.210938 25.703125 -9.421875 C 27.773438 -7.640625 31.6875 -6.75 37.4375 -6.75 C 43.1875 -6.75 47.117188 -7.640625 49.234375 -9.421875 C 51.359375 -11.210938 52.421875 -13.5625 52.421875 -16.46875 L 52.421875 -39.375 C 52.421875 -42.28125 51.359375 -44.625 49.234375 -46.40625 C 47.117188 -48.195312 43.1875 -49.09375 37.4375 -49.09375 C 31.6875 -49.09375 27.773438 -48.195312 25.703125 -46.40625 C 23.640625 -44.625 22.609375 -42.28125 22.609375 -39.375 Z M 31.0625 -17.46875 L 31.0625 -38.375 C 31.0625 -39.351562 31.453125 -40.191406 32.234375 -40.890625 C 33.015625 -41.585938 34.800781 -41.9375 37.59375 -41.9375 C 40.382812 -41.9375 42.171875 -41.585938 42.953125 -40.890625 C 43.734375 -40.191406 44.125 -39.351562 44.125 -38.375 L 44.125 -17.46875 C 44.125 -16.4375 43.734375 -15.570312 42.953125 -14.875 C 42.171875 -14.175781 40.382812 -13.828125 37.59375 -13.828125 C 34.800781 -13.828125 33.015625 -14.175781 32.234375 -14.875 C 31.453125 -15.570312 31.0625 -16.4375 31.0625 -17.46875 Z M 31.84375 -17.46875 C 31.84375 -16.957031 31.945312 -16.503906 32.15625 -16.109375 C 32.363281 -15.722656 32.753906 -15.398438 33.328125 -15.140625 L 33.328125 -29.90625 C 33.328125 -30.425781 33.222656 -30.878906 33.015625 -31.265625 C 32.804688 -31.648438 32.414062 -31.945312 31.84375 -32.15625 Z M 31.84375 -17.46875 "/></g></g></g><g fill="#00ffff" fill-opacity="1"><g transform="translate(324.217359, 150.191195)"><g><path d="M 27.890625 10.40625 C 22.859375 10.40625 18.722656 9.875 15.484375 8.8125 C 12.253906 7.75 9.734375 6.335938 7.921875 4.578125 C 6.109375 2.816406 4.851562 0.800781 4.15625 -1.46875 C 3.457031 -3.75 3.109375 -6.109375 3.109375 -8.546875 L 3.109375 -44.65625 C 3.109375 -45.332031 3.195312 -45.898438 3.375 -46.359375 C 3.5625 -46.828125 3.832031 -47.21875 4.1875 -47.53125 L 14.21875 -56 C 14.476562 -56.207031 14.828125 -56.375 15.265625 -56.5 C 15.703125 -56.632812 16.179688 -56.703125 16.703125 -56.703125 L 28.890625 -56.703125 C 30.140625 -56.703125 31.046875 -56.414062 31.609375 -55.84375 C 32.179688 -55.269531 32.46875 -54.363281 32.46875 -53.125 L 32.46875 -17.703125 C 32.46875 -17.242188 32.546875 -16.816406 32.703125 -16.421875 C 32.859375 -16.035156 33.191406 -15.738281 33.703125 -15.53125 L 33.703125 -44.65625 C 33.703125 -45.332031 33.78125 -45.898438 33.9375 -46.359375 C 34.09375 -46.828125 34.328125 -47.191406 34.640625 -47.453125 L 34.71875 -47.53125 L 44.8125 -56 C 45.070312 -56.207031 45.410156 -56.375 45.828125 -56.5 C 46.242188 -56.632812 46.734375 -56.703125 47.296875 -56.703125 L 59.109375 -56.703125 C 60.347656 -56.703125 61.253906 -56.414062 61.828125 -55.84375 C 62.398438 -55.269531 62.6875 -54.363281 62.6875 -53.125 L 62.6875 -14.6875 C 62.6875 -12.300781 62.347656 -10.097656 61.671875 -8.078125 C 60.992188 -6.054688 59.773438 -4.320312 58.015625 -2.875 L 47.921875 5.515625 C 46.109375 7.066406 43.597656 8.269531 40.390625 9.125 C 37.179688 9.976562 33.015625 10.40625 27.890625 10.40625 Z M 61.90625 -14.6875 L 61.90625 -53.125 C 61.90625 -54.113281 61.679688 -54.828125 61.234375 -55.265625 C 60.796875 -55.703125 60.085938 -55.921875 59.109375 -55.921875 L 47.296875 -55.921875 C 46.316406 -55.921875 45.601562 -55.703125 45.15625 -55.265625 C 44.71875 -54.828125 44.5 -54.113281 44.5 -53.125 L 44.5 -17.703125 C 44.5 -16.671875 44.109375 -15.804688 43.328125 -15.109375 C 42.554688 -14.410156 40.800781 -14.0625 38.0625 -14.0625 C 35.363281 -14.0625 33.625 -14.410156 32.84375 -15.109375 C 32.070312 -15.804688 31.6875 -16.671875 31.6875 -17.703125 L 31.6875 -53.125 C 31.6875 -54.113281 31.46875 -54.828125 31.03125 -55.265625 C 30.59375 -55.703125 29.878906 -55.921875 28.890625 -55.921875 L 16.703125 -55.921875 C 15.710938 -55.921875 15 -55.703125 14.5625 -55.265625 C 14.125 -54.828125 13.90625 -54.113281 13.90625 -53.125 L 13.90625 -14.6875 C 13.90625 -12.300781 14.253906 -10.132812 14.953125 -8.1875 C 15.648438 -6.25 16.890625 -4.59375 18.671875 -3.21875 C 20.460938 -1.851562 22.910156 -0.78125 26.015625 0 C 29.128906 0.78125 33.09375 1.171875 37.90625 1.171875 C 42.71875 1.171875 46.675781 0.78125 49.78125 0 C 52.894531 -0.78125 55.34375 -1.851562 57.125 -3.21875 C 58.914062 -4.59375 60.160156 -6.25 60.859375 -8.1875 C 61.554688 -10.132812 61.90625 -12.300781 61.90625 -14.6875 Z M 22.453125 -48.9375 L 23.21875 -48.9375 L 23.21875 -16.546875 C 23.21875 -13.640625 24.238281 -11.289062 26.28125 -9.5 C 28.332031 -7.71875 32.234375 -6.828125 37.984375 -6.828125 C 43.734375 -6.828125 47.640625 -7.71875 49.703125 -9.5 C 51.773438 -11.289062 52.8125 -13.640625 52.8125 -16.546875 L 52.8125 -48.9375 L 53.59375 -48.9375 L 53.59375 -16.546875 C 53.59375 -13.441406 52.503906 -10.914062 50.328125 -8.96875 C 48.148438 -7.03125 44.035156 -6.0625 37.984375 -6.0625 C 31.921875 -6.0625 27.816406 -7.03125 25.671875 -8.96875 C 23.523438 -10.914062 22.453125 -13.441406 22.453125 -16.546875 Z M 22.453125 -48.9375 "/></g></g></g><g fill="#00ffff" fill-opacity="1"><g transform="translate(389.923058, 150.191195)"><g><path d="M 30.6875 9.25 L 18.09375 9.25 C 16.851562 9.25 15.945312 8.960938 15.375 8.390625 C 14.8125 7.816406 14.53125 6.910156 14.53125 5.671875 L 14.53125 -31.6875 L 3.890625 -31.6875 C 2.640625 -31.6875 1.726562 -31.972656 1.15625 -32.546875 C 0.59375 -33.117188 0.3125 -34.023438 0.3125 -35.265625 L 0.3125 -44.65625 C 0.3125 -45.332031 0.398438 -45.898438 0.578125 -46.359375 C 0.765625 -46.828125 1.035156 -47.21875 1.390625 -47.53125 L 11.421875 -56 C 11.679688 -56.207031 12.03125 -56.375 12.46875 -56.5 C 12.90625 -56.632812 13.382812 -56.703125 13.90625 -56.703125 L 54.90625 -56.703125 C 56.15625 -56.703125 57.0625 -56.414062 57.625 -55.84375 C 58.195312 -55.269531 58.484375 -54.363281 58.484375 -53.125 L 58.484375 -43.734375 C 58.484375 -43.054688 58.390625 -42.484375 58.203125 -42.015625 C 58.023438 -41.554688 57.757812 -41.171875 57.40625 -40.859375 L 47.296875 -32.46875 C 47.085938 -32.257812 46.765625 -32.078125 46.328125 -31.921875 C 45.890625 -31.765625 45.410156 -31.6875 44.890625 -31.6875 L 44.265625 -31.6875 L 44.265625 -2.796875 C 44.265625 -2.117188 44.175781 -1.546875 44 -1.078125 C 43.820312 -0.617188 43.550781 -0.234375 43.1875 0.078125 L 33.09375 8.46875 C 32.882812 8.675781 32.554688 8.859375 32.109375 9.015625 C 31.671875 9.171875 31.195312 9.25 30.6875 9.25 Z M 40.703125 0 C 41.679688 0 42.390625 -0.21875 42.828125 -0.65625 C 43.273438 -1.101562 43.5 -1.816406 43.5 -2.796875 L 43.5 -40.9375 L 54.90625 -40.9375 C 55.894531 -40.9375 56.609375 -41.15625 57.046875 -41.59375 C 57.484375 -42.03125 57.703125 -42.742188 57.703125 -43.734375 L 57.703125 -53.125 C 57.703125 -54.113281 57.484375 -54.828125 57.046875 -55.265625 C 56.609375 -55.703125 55.894531 -55.921875 54.90625 -55.921875 L 13.90625 -55.921875 C 12.914062 -55.921875 12.203125 -55.703125 11.765625 -55.265625 C 11.328125 -54.828125 11.109375 -54.113281 11.109375 -53.125 L 11.109375 -43.734375 C 11.109375 -42.742188 11.328125 -42.03125 11.765625 -41.59375 C 12.203125 -41.15625 12.914062 -40.9375 13.90625 -40.9375 L 25.328125 -40.9375 L 25.328125 -2.796875 C 25.328125 -1.816406 25.546875 -1.101562 25.984375 -0.65625 C 26.421875 -0.21875 27.128906 0 28.109375 0 Z M 34.015625 -6.984375 L 34.015625 -48.15625 L 18.09375 -48.15625 L 18.09375 -48.9375 L 50.71875 -48.9375 L 50.71875 -48.15625 L 34.796875 -48.15625 L 34.796875 -6.984375 Z M 34.015625 -6.984375 "/></g></g></g><g fill="#000000" fill-opacity="1"><g transform="translate(130.672931, 154.997518)"><g><path d="M 22.140625 -23.53125 L 22.140625 -21.125 L 52.421875 -21.125 L 52.421875 -23.53125 C 52.421875 -24.925781 52.304688 -26.21875 52.078125 -27.40625 C 51.847656 -28.601562 51.550781 -29.722656 51.1875 -30.765625 L 45.828125 -43.421875 C 45.253906 -44.765625 44.65625 -45.890625 44.03125 -46.796875 C 43.414062 -47.703125 42.382812 -48.15625 40.9375 -48.15625 L 33.328125 -48.15625 C 31.765625 -48.15625 30.671875 -47.703125 30.046875 -46.796875 C 29.429688 -45.890625 28.863281 -44.789062 28.34375 -43.5 L 23.375 -30.765625 C 23.007812 -29.722656 22.710938 -28.601562 22.484375 -27.40625 C 22.253906 -26.21875 22.140625 -24.925781 22.140625 -23.53125 Z M 34.5625 -39.609375 C 34.769531 -40.078125 34.988281 -40.414062 35.21875 -40.625 C 35.457031 -40.832031 35.734375 -40.9375 36.046875 -40.9375 L 37.984375 -40.9375 C 38.296875 -40.9375 38.566406 -40.832031 38.796875 -40.625 C 39.023438 -40.414062 39.242188 -40.078125 39.453125 -39.609375 L 43.109375 -27.8125 L 30.90625 -27.8125 Z M 52.421875 -6.984375 L 52.421875 -20.34375 L 22.140625 -20.34375 L 22.140625 -6.984375 L 21.359375 -6.984375 L 21.359375 -23.53125 C 21.359375 -24.976562 21.472656 -26.3125 21.703125 -27.53125 C 21.941406 -28.75 22.269531 -29.925781 22.6875 -31.0625 L 27.65625 -43.8125 C 28.21875 -45.257812 28.863281 -46.472656 29.59375 -47.453125 C 30.320312 -48.441406 31.566406 -48.9375 33.328125 -48.9375 L 40.9375 -48.9375 C 42.644531 -48.9375 43.847656 -48.441406 44.546875 -47.453125 C 45.242188 -46.472656 45.90625 -45.234375 46.53125 -43.734375 L 51.890625 -31.0625 C 52.296875 -29.925781 52.613281 -28.75 52.84375 -27.53125 C 53.082031 -26.3125 53.203125 -24.976562 53.203125 -23.53125 L 53.203125 -6.984375 Z M 30.140625 -2.796875 L 30.140625 -13.671875 L 43.890625 -13.671875 L 43.890625 -2.796875 C 43.890625 -1.816406 44.132812 -1.101562 44.625 -0.65625 C 45.113281 -0.21875 45.875 0 46.90625 0 L 58.640625 0 C 59.628906 0 60.34375 -0.21875 60.78125 -0.65625 C 61.21875 -1.101562 61.4375 -1.816406 61.4375 -2.796875 L 61.4375 -23.296875 C 61.4375 -24.847656 61.191406 -26.632812 60.703125 -28.65625 C 60.210938 -30.675781 59.445312 -33.035156 58.40625 -35.734375 L 51.65625 -53.359375 C 51.34375 -54.242188 50.863281 -54.890625 50.21875 -55.296875 C 49.570312 -55.710938 48.753906 -55.921875 47.765625 -55.921875 L 26.875 -55.921875 C 25.84375 -55.921875 25 -55.710938 24.34375 -55.296875 C 23.695312 -54.890625 23.21875 -54.242188 22.90625 -53.359375 L 16.15625 -35.734375 C 15.125 -33.035156 14.359375 -30.675781 13.859375 -28.65625 C 13.367188 -26.632812 13.125 -24.847656 13.125 -23.296875 L 13.125 -2.796875 C 13.125 -1.816406 13.34375 -1.101562 13.78125 -0.65625 C 14.226562 -0.21875 14.941406 0 15.921875 0 L 27.34375 0 C 28.320312 0 29.03125 -0.21875 29.46875 -0.65625 C 29.914062 -1.101562 30.140625 -1.816406 30.140625 -2.796875 Z M 19.734375 8.46875 C 19.523438 8.675781 19.195312 8.859375 18.75 9.015625 C 18.3125 9.171875 17.835938 9.25 17.328125 9.25 L 5.90625 9.25 C 4.65625 9.25 3.742188 8.960938 3.171875 8.390625 C 2.609375 7.816406 2.328125 6.910156 2.328125 5.671875 L 2.328125 -14.828125 C 2.328125 -16.441406 2.570312 -18.269531 3.0625 -20.3125 C 3.5625 -22.351562 4.351562 -24.773438 5.4375 -27.578125 L 12.109375 -45.125 C 12.265625 -45.59375 12.457031 -45.992188 12.6875 -46.328125 C 12.925781 -46.671875 13.175781 -46.96875 13.4375 -47.21875 L 13.515625 -47.296875 L 23.453125 -55.609375 C 23.867188 -55.972656 24.359375 -56.242188 24.921875 -56.421875 C 25.492188 -56.609375 26.144531 -56.703125 26.875 -56.703125 L 47.765625 -56.703125 C 48.953125 -56.703125 49.921875 -56.453125 50.671875 -55.953125 C 51.429688 -55.460938 51.988281 -54.703125 52.34375 -53.671875 L 59.109375 -36.046875 C 60.191406 -33.242188 60.976562 -30.816406 61.46875 -28.765625 C 61.96875 -26.722656 62.21875 -24.898438 62.21875 -23.296875 L 62.21875 -2.796875 C 62.21875 -2.117188 62.125 -1.546875 61.9375 -1.078125 C 61.757812 -0.617188 61.488281 -0.234375 61.125 0.078125 L 51.03125 8.46875 C 50.820312 8.675781 50.5 8.859375 50.0625 9.015625 C 49.625 9.171875 49.144531 9.25 48.625 9.25 L 36.890625 9.25 C 35.597656 9.25 34.640625 8.945312 34.015625 8.34375 C 33.398438 7.75 33.09375 6.859375 33.09375 5.671875 L 33.09375 -4.421875 L 30.90625 -4.421875 L 30.90625 -2.796875 C 30.90625 -2.117188 30.816406 -1.546875 30.640625 -1.078125 C 30.460938 -0.617188 30.191406 -0.234375 29.828125 0.078125 Z M 19.734375 8.46875 "/></g></g></g><g fill="#000000" fill-opacity="1"><g transform="translate(195.135961, 154.997518)"><g><path d="M 7.0625 9.25 C 5.820312 9.25 4.914062 8.960938 4.34375 8.390625 C 3.78125 7.816406 3.5 6.910156 3.5 5.671875 L 3.5 -44.65625 C 3.5 -45.332031 3.585938 -45.898438 3.765625 -46.359375 C 3.941406 -46.828125 4.210938 -47.21875 4.578125 -47.53125 L 14.609375 -56 C 14.859375 -56.207031 15.203125 -56.375 15.640625 -56.5 C 16.085938 -56.632812 16.570312 -56.703125 17.09375 -56.703125 L 41.859375 -56.703125 C 47.242188 -56.703125 51.207031 -55.648438 53.75 -53.546875 C 56.289062 -51.453125 57.5625 -48.285156 57.5625 -44.046875 L 57.5625 -40.3125 C 57.5625 -38.5 57.3125 -36.941406 56.8125 -35.640625 C 56.320312 -34.347656 55.585938 -33.316406 54.609375 -32.546875 L 54.375 -32.390625 C 57.164062 -31.765625 59.257812 -30.429688 60.65625 -28.390625 C 62.0625 -26.347656 62.765625 -23.515625 62.765625 -19.890625 L 62.765625 -12.734375 C 62.765625 -10.410156 62.425781 -8.40625 61.75 -6.71875 C 61.070312 -5.03125 60.0625 -3.617188 58.71875 -2.484375 L 48.703125 5.984375 C 47.410156 7.066406 45.78125 7.878906 43.8125 8.421875 C 41.84375 8.972656 39.535156 9.25 36.890625 9.25 Z M 46.90625 0 C 52.039062 0 55.835938 -1.035156 58.296875 -3.109375 C 60.753906 -5.179688 61.984375 -8.390625 61.984375 -12.734375 L 61.984375 -19.890625 C 61.984375 -23.660156 61.179688 -26.53125 59.578125 -28.5 C 57.972656 -30.46875 55.515625 -31.609375 52.203125 -31.921875 C 53.753906 -32.597656 54.90625 -33.617188 55.65625 -34.984375 C 56.40625 -36.359375 56.78125 -38.132812 56.78125 -40.3125 L 56.78125 -44.046875 C 56.78125 -48.078125 55.5625 -51.0625 53.125 -53 C 50.695312 -54.945312 46.941406 -55.921875 41.859375 -55.921875 L 17.09375 -55.921875 C 16.101562 -55.921875 15.390625 -55.703125 14.953125 -55.265625 C 14.515625 -54.828125 14.296875 -54.113281 14.296875 -53.125 L 14.296875 -2.796875 C 14.296875 -1.816406 14.515625 -1.101562 14.953125 -0.65625 C 15.390625 -0.21875 16.101562 0 17.09375 0 Z M 43.8125 -6.984375 L 22.90625 -6.984375 L 22.90625 -48.9375 L 38.6875 -48.9375 C 40.800781 -48.9375 42.53125 -48.710938 43.875 -48.265625 C 45.226562 -47.828125 46.265625 -47.234375 46.984375 -46.484375 C 47.710938 -45.734375 48.207031 -44.863281 48.46875 -43.875 C 48.726562 -42.894531 48.859375 -41.835938 48.859375 -40.703125 L 48.859375 -35.734375 C 48.859375 -34.179688 48.582031 -32.753906 48.03125 -31.453125 C 47.488281 -30.160156 46.109375 -29.226562 43.890625 -28.65625 C 46.003906 -28.65625 47.734375 -28.4375 49.078125 -28 C 50.429688 -27.5625 51.46875 -26.941406 52.1875 -26.140625 C 52.914062 -25.335938 53.394531 -24.390625 53.625 -23.296875 C 53.863281 -22.210938 53.984375 -21.023438 53.984375 -19.734375 L 53.984375 -14.75 C 53.984375 -13.613281 53.851562 -12.566406 53.59375 -11.609375 C 53.332031 -10.648438 52.851562 -9.832031 52.15625 -9.15625 C 51.457031 -8.488281 50.429688 -7.957031 49.078125 -7.5625 C 47.734375 -7.175781 45.976562 -6.984375 43.8125 -6.984375 Z M 38.6875 -48.15625 L 23.6875 -48.15625 L 23.6875 -28.65625 L 38.6875 -28.65625 C 40.800781 -28.65625 42.476562 -28.847656 43.71875 -29.234375 C 44.96875 -29.628906 45.914062 -30.148438 46.5625 -30.796875 C 47.207031 -31.441406 47.617188 -32.191406 47.796875 -33.046875 C 47.984375 -33.898438 48.078125 -34.796875 48.078125 -35.734375 L 48.078125 -40.703125 C 48.078125 -42.773438 47.476562 -44.535156 46.28125 -45.984375 C 45.09375 -47.429688 42.5625 -48.15625 38.6875 -48.15625 Z M 31.765625 -42.71875 L 38.375 -42.71875 C 39.351562 -42.71875 40.085938 -42.457031 40.578125 -41.9375 C 41.078125 -41.425781 41.328125 -40.648438 41.328125 -39.609375 L 41.328125 -37.4375 C 41.328125 -36.40625 41.078125 -35.628906 40.578125 -35.109375 C 40.085938 -34.585938 39.351562 -34.328125 38.375 -34.328125 L 31.765625 -34.328125 Z M 43.890625 -27.890625 L 23.6875 -27.890625 L 23.6875 -7.765625 L 43.8125 -7.765625 C 47.6875 -7.765625 50.21875 -8.398438 51.40625 -9.671875 C 52.601562 -10.941406 53.203125 -12.632812 53.203125 -14.75 L 53.203125 -19.734375 C 53.203125 -22.054688 52.617188 -23.992188 51.453125 -25.546875 C 50.285156 -27.109375 47.765625 -27.890625 43.890625 -27.890625 Z M 31.765625 -22.375 L 41.859375 -22.375 C 42.847656 -22.375 43.585938 -22.125 44.078125 -21.625 C 44.566406 -21.132812 44.8125 -20.375 44.8125 -19.34375 L 44.8125 -16.3125 C 44.8125 -15.269531 44.566406 -14.488281 44.078125 -13.96875 C 43.585938 -13.457031 42.847656 -13.203125 41.859375 -13.203125 L 31.765625 -13.203125 Z M 31.765625 -22.375 "/></g></g></g><g fill="#000000" fill-opacity="1"><g transform="translate(259.210663, 154.997518)"><g><path d="M 47.765625 5.515625 C 45.953125 7.066406 43.414062 8.269531 40.15625 9.125 C 36.894531 9.976562 32.703125 10.40625 27.578125 10.40625 C 22.503906 10.40625 18.347656 9.875 15.109375 8.8125 C 11.867188 7.75 9.328125 6.335938 7.484375 4.578125 C 5.648438 2.816406 4.382812 0.800781 3.6875 -1.46875 C 2.988281 -3.75 2.640625 -6.109375 2.640625 -8.546875 L 2.640625 -32.703125 C 2.640625 -35.078125 2.972656 -37.285156 3.640625 -39.328125 C 4.316406 -41.378906 5.535156 -43.128906 7.296875 -44.578125 L 17.40625 -52.96875 C 19.207031 -54.519531 21.726562 -55.722656 24.96875 -56.578125 C 28.207031 -57.429688 32.414062 -57.859375 37.59375 -57.859375 C 42.664062 -57.859375 46.816406 -57.441406 50.046875 -56.609375 C 53.285156 -55.785156 55.820312 -54.632812 57.65625 -53.15625 C 59.5 -51.6875 60.757812 -49.925781 61.4375 -47.875 C 62.113281 -45.832031 62.453125 -43.597656 62.453125 -41.171875 L 62.453125 -14.6875 C 62.453125 -12.300781 62.113281 -10.097656 61.4375 -8.078125 C 60.757812 -6.054688 59.539062 -4.320312 57.78125 -2.875 Z M 61.671875 -14.6875 L 61.671875 -41.171875 C 61.671875 -43.546875 61.320312 -45.703125 60.625 -47.640625 C 59.925781 -49.585938 58.679688 -51.257812 56.890625 -52.65625 C 55.109375 -54.0625 52.648438 -55.148438 49.515625 -55.921875 C 46.378906 -56.703125 42.40625 -57.09375 37.59375 -57.09375 C 32.78125 -57.09375 28.789062 -56.703125 25.625 -55.921875 C 22.46875 -55.148438 19.992188 -54.0625 18.203125 -52.65625 C 16.421875 -51.257812 15.179688 -49.585938 14.484375 -47.640625 C 13.785156 -45.703125 13.4375 -43.546875 13.4375 -41.171875 L 13.4375 -14.6875 C 13.4375 -12.300781 13.785156 -10.132812 14.484375 -8.1875 C 15.179688 -6.25 16.421875 -4.59375 18.203125 -3.21875 C 19.992188 -1.851562 22.46875 -0.78125 25.625 0 C 28.789062 0.78125 32.78125 1.171875 37.59375 1.171875 C 42.40625 1.171875 46.378906 0.78125 49.515625 0 C 52.648438 -0.78125 55.109375 -1.851562 56.890625 -3.21875 C 58.679688 -4.59375 59.925781 -6.25 60.625 -8.1875 C 61.320312 -10.132812 61.671875 -12.300781 61.671875 -14.6875 Z M 53.203125 -16.46875 C 53.203125 -13.363281 52.085938 -10.835938 49.859375 -8.890625 C 47.640625 -6.953125 43.5 -5.984375 37.4375 -5.984375 C 31.375 -5.984375 27.253906 -6.953125 25.078125 -8.890625 C 22.910156 -10.835938 21.828125 -13.363281 21.828125 -16.46875 L 21.828125 -39.375 C 21.828125 -42.488281 22.910156 -45.015625 25.078125 -46.953125 C 27.253906 -48.890625 31.375 -49.859375 37.4375 -49.859375 C 43.5 -49.859375 47.640625 -48.890625 49.859375 -46.953125 C 52.085938 -45.015625 53.203125 -42.488281 53.203125 -39.375 Z M 22.609375 -16.46875 C 22.609375 -13.5625 23.640625 -11.210938 25.703125 -9.421875 C 27.773438 -7.640625 31.6875 -6.75 37.4375 -6.75 C 43.1875 -6.75 47.117188 -7.640625 49.234375 -9.421875 C 51.359375 -11.210938 52.421875 -13.5625 52.421875 -16.46875 L 52.421875 -39.375 C 52.421875 -42.28125 51.359375 -44.625 49.234375 -46.40625 C 47.117188 -48.195312 43.1875 -49.09375 37.4375 -49.09375 C 31.6875 -49.09375 27.773438 -48.195312 25.703125 -46.40625 C 23.640625 -44.625 22.609375 -42.28125 22.609375 -39.375 Z M 31.0625 -17.46875 L 31.0625 -38.375 C 31.0625 -39.351562 31.453125 -40.191406 32.234375 -40.890625 C 33.015625 -41.585938 34.800781 -41.9375 37.59375 -41.9375 C 40.382812 -41.9375 42.171875 -41.585938 42.953125 -40.890625 C 43.734375 -40.191406 44.125 -39.351562 44.125 -38.375 L 44.125 -17.46875 C 44.125 -16.4375 43.734375 -15.570312 42.953125 -14.875 C 42.171875 -14.175781 40.382812 -13.828125 37.59375 -13.828125 C 34.800781 -13.828125 33.015625 -14.175781 32.234375 -14.875 C 31.453125 -15.570312 31.0625 -16.4375 31.0625 -17.46875 Z M 31.84375 -17.46875 C 31.84375 -16.957031 31.945312 -16.503906 32.15625 -16.109375 C 32.363281 -15.722656 32.753906 -15.398438 33.328125 -15.140625 L 33.328125 -29.90625 C 33.328125 -30.425781 33.222656 -30.878906 33.015625 -31.265625 C 32.804688 -31.648438 32.414062 -31.945312 31.84375 -32.15625 Z M 31.84375 -17.46875 "/></g></g></g><g fill="#000000" fill-opacity="1"><g transform="translate(324.217359, 154.997518)"><g><path d="M 27.890625 10.40625 C 22.859375 10.40625 18.722656 9.875 15.484375 8.8125 C 12.253906 7.75 9.734375 6.335938 7.921875 4.578125 C 6.109375 2.816406 4.851562 0.800781 4.15625 -1.46875 C 3.457031 -3.75 3.109375 -6.109375 3.109375 -8.546875 L 3.109375 -44.65625 C 3.109375 -45.332031 3.195312 -45.898438 3.375 -46.359375 C 3.5625 -46.828125 3.832031 -47.21875 4.1875 -47.53125 L 14.21875 -56 C 14.476562 -56.207031 14.828125 -56.375 15.265625 -56.5 C 15.703125 -56.632812 16.179688 -56.703125 16.703125 -56.703125 L 28.890625 -56.703125 C 30.140625 -56.703125 31.046875 -56.414062 31.609375 -55.84375 C 32.179688 -55.269531 32.46875 -54.363281 32.46875 -53.125 L 32.46875 -17.703125 C 32.46875 -17.242188 32.546875 -16.816406 32.703125 -16.421875 C 32.859375 -16.035156 33.191406 -15.738281 33.703125 -15.53125 L 33.703125 -44.65625 C 33.703125 -45.332031 33.78125 -45.898438 33.9375 -46.359375 C 34.09375 -46.828125 34.328125 -47.191406 34.640625 -47.453125 L 34.71875 -47.53125 L 44.8125 -56 C 45.070312 -56.207031 45.410156 -56.375 45.828125 -56.5 C 46.242188 -56.632812 46.734375 -56.703125 47.296875 -56.703125 L 59.109375 -56.703125 C 60.347656 -56.703125 61.253906 -56.414062 61.828125 -55.84375 C 62.398438 -55.269531 62.6875 -54.363281 62.6875 -53.125 L 62.6875 -14.6875 C 62.6875 -12.300781 62.347656 -10.097656 61.671875 -8.078125 C 60.992188 -6.054688 59.773438 -4.320312 58.015625 -2.875 L 47.921875 5.515625 C 46.109375 7.066406 43.597656 8.269531 40.390625 9.125 C 37.179688 9.976562 33.015625 10.40625 27.890625 10.40625 Z M 61.90625 -14.6875 L 61.90625 -53.125 C 61.90625 -54.113281 61.679688 -54.828125 61.234375 -55.265625 C 60.796875 -55.703125 60.085938 -55.921875 59.109375 -55.921875 L 47.296875 -55.921875 C 46.316406 -55.921875 45.601562 -55.703125 45.15625 -55.265625 C 44.71875 -54.828125 44.5 -54.113281 44.5 -53.125 L 44.5 -17.703125 C 44.5 -16.671875 44.109375 -15.804688 43.328125 -15.109375 C 42.554688 -14.410156 40.800781 -14.0625 38.0625 -14.0625 C 35.363281 -14.0625 33.625 -14.410156 32.84375 -15.109375 C 32.070312 -15.804688 31.6875 -16.671875 31.6875 -17.703125 L 31.6875 -53.125 C 31.6875 -54.113281 31.46875 -54.828125 31.03125 -55.265625 C 30.59375 -55.703125 29.878906 -55.921875 28.890625 -55.921875 L 16.703125 -55.921875 C 15.710938 -55.921875 15 -55.703125 14.5625 -55.265625 C 14.125 -54.828125 13.90625 -54.113281 13.90625 -53.125 L 13.90625 -14.6875 C 13.90625 -12.300781 14.253906 -10.132812 14.953125 -8.1875 C 15.648438 -6.25 16.890625 -4.59375 18.671875 -3.21875 C 20.460938 -1.851562 22.910156 -0.78125 26.015625 0 C 29.128906 0.78125 33.09375 1.171875 37.90625 1.171875 C 42.71875 1.171875 46.675781 0.78125 49.78125 0 C 52.894531 -0.78125 55.34375 -1.851562 57.125 -3.21875 C 58.914062 -4.59375 60.160156 -6.25 60.859375 -8.1875 C 61.554688 -10.132812 61.90625 -12.300781 61.90625 -14.6875 Z M 22.453125 -48.9375 L 23.21875 -48.9375 L 23.21875 -16.546875 C 23.21875 -13.640625 24.238281 -11.289062 26.28125 -9.5 C 28.332031 -7.71875 32.234375 -6.828125 37.984375 -6.828125 C 43.734375 -6.828125 47.640625 -7.71875 49.703125 -9.5 C 51.773438 -11.289062 52.8125 -13.640625 52.8125 -16.546875 L 52.8125 -48.9375 L 53.59375 -48.9375 L 53.59375 -16.546875 C 53.59375 -13.441406 52.503906 -10.914062 50.328125 -8.96875 C 48.148438 -7.03125 44.035156 -6.0625 37.984375 -6.0625 C 31.921875 -6.0625 27.816406 -7.03125 25.671875 -8.96875 C 23.523438 -10.914062 22.453125 -13.441406 22.453125 -16.546875 Z M 22.453125 -48.9375 "/></g></g></g><g fill="#000000" fill-opacity="1"><g transform="translate(389.923058, 154.997518)"><g><path d="M 30.6875 9.25 L 18.09375 9.25 C 16.851562 9.25 15.945312 8.960938 15.375 8.390625 C 14.8125 7.816406 14.53125 6.910156 14.53125 5.671875 L 14.53125 -31.6875 L 3.890625 -31.6875 C 2.640625 -31.6875 1.726562 -31.972656 1.15625 -32.546875 C 0.59375 -33.117188 0.3125 -34.023438 0.3125 -35.265625 L 0.3125 -44.65625 C 0.3125 -45.332031 0.398438 -45.898438 0.578125 -46.359375 C 0.765625 -46.828125 1.035156 -47.21875 1.390625 -47.53125 L 11.421875 -56 C 11.679688 -56.207031 12.03125 -56.375 12.46875 -56.5 C 12.90625 -56.632812 13.382812 -56.703125 13.90625 -56.703125 L 54.90625 -56.703125 C 56.15625 -56.703125 57.0625 -56.414062 57.625 -55.84375 C 58.195312 -55.269531 58.484375 -54.363281 58.484375 -53.125 L 58.484375 -43.734375 C 58.484375 -43.054688 58.390625 -42.484375 58.203125 -42.015625 C 58.023438 -41.554688 57.757812 -41.171875 57.40625 -40.859375 L 47.296875 -32.46875 C 47.085938 -32.257812 46.765625 -32.078125 46.328125 -31.921875 C 45.890625 -31.765625 45.410156 -31.6875 44.890625 -31.6875 L 44.265625 -31.6875 L 44.265625 -2.796875 C 44.265625 -2.117188 44.175781 -1.546875 44 -1.078125 C 43.820312 -0.617188 43.550781 -0.234375 43.1875 0.078125 L 33.09375 8.46875 C 32.882812 8.675781 32.554688 8.859375 32.109375 9.015625 C 31.671875 9.171875 31.195312 9.25 30.6875 9.25 Z M 40.703125 0 C 41.679688 0 42.390625 -0.21875 42.828125 -0.65625 C 43.273438 -1.101562 43.5 -1.816406 43.5 -2.796875 L 43.5 -40.9375 L 54.90625 -40.9375 C 55.894531 -40.9375 56.609375 -41.15625 57.046875 -41.59375 C 57.484375 -42.03125 57.703125 -42.742188 57.703125 -43.734375 L 57.703125 -53.125 C 57.703125 -54.113281 57.484375 -54.828125 57.046875 -55.265625 C 56.609375 -55.703125 55.894531 -55.921875 54.90625 -55.921875 L 13.90625 -55.921875 C 12.914062 -55.921875 12.203125 -55.703125 11.765625 -55.265625 C 11.328125 -54.828125 11.109375 -54.113281 11.109375 -53.125 L 11.109375 -43.734375 C 11.109375 -42.742188 11.328125 -42.03125 11.765625 -41.59375 C 12.203125 -41.15625 12.914062 -40.9375 13.90625 -40.9375 L 25.328125 -40.9375 L 25.328125 -2.796875 C 25.328125 -1.816406 25.546875 -1.101562 25.984375 -0.65625 C 26.421875 -0.21875 27.128906 0 28.109375 0 Z M 34.015625 -6.984375 L 34.015625 -48.15625 L 18.09375 -48.15625 L 18.09375 -48.9375 L 50.71875 -48.9375 L 50.71875 -48.15625 L 34.796875 -48.15625 L 34.796875 -6.984375 Z M 34.015625 -6.984375 "/></g></g></g><g clip-path="url(#89c5c9d9c9)"><path fill="#a2a69d" d="M 461.386719 132.921875 C 459.546875 148.445312 458.058594 149.933594 442.539062 151.769531 C 442.570312 151.773438 442.601562 151.777344 442.632812 151.78125 L 442.636719 151.78125 C 458.066406 153.613281 459.550781 155.128906 461.386719 170.617188 C 463.222656 155.097656 464.710938 153.605469 480.234375 151.769531 C 464.710938 149.933594 463.222656 148.445312 461.386719 132.921875 Z M 461.386719 132.921875 " fill-opacity="1" fill-rule="nonzero"/></g><g clip-path="url(#e7beec6fa2)"><path fill="#a2a69d" d="M 493.464844 154.859375 C 492.40625 163.828125 491.542969 164.691406 482.574219 165.75 C 482.589844 165.753906 482.609375 165.757812 482.628906 165.757812 C 491.546875 166.816406 492.40625 167.691406 493.464844 176.644531 C 494.527344 167.675781 495.390625 166.8125 504.359375 165.75 C 495.390625 164.691406 494.527344 163.828125 493.464844 154.859375 Z M 493.464844 154.859375 " fill-opacity="1" fill-rule="nonzero"/></g><g clip-path="url(#6cc52dab5b)"><path fill="#a2a69d" d="M 453.433594 69.777344 C 452.371094 78.75 451.507812 79.609375 442.539062 80.671875 C 442.558594 80.671875 442.574219 80.675781 442.59375 80.675781 C 451.511719 81.734375 452.371094 82.613281 453.433594 91.566406 C 454.492188 82.59375 455.355469 81.734375 464.324219 80.671875 C 455.355469 79.609375 454.492188 78.75 453.433594 69.777344 Z M 453.433594 69.777344 " fill-opacity="1" fill-rule="nonzero"/></g><g clip-path="url(#d4b5442e5b)"><path fill="#a2a69d" d="M 431.636719 177.75 C 430.574219 186.722656 429.714844 187.582031 420.742188 188.644531 C 420.761719 188.644531 420.78125 188.648438 420.796875 188.652344 C 429.71875 189.710938 430.578125 190.585938 431.636719 199.539062 C 432.699219 190.566406 433.558594 189.707031 442.53125 188.644531 C 433.558594 187.582031 432.699219 186.722656 431.636719 177.75 Z M 431.636719 177.75 " fill-opacity="1" fill-rule="nonzero"/></g></svg>